<svg width="134" height="47" viewBox="0 0 134 47" fill="none" xmlns="http://www.w3.org/2000/svg">
<path d="M0.857544 26.3021C0.857544 24.44 1.24168 22.7838 2.00994 21.3335C2.79608 19.8654 3.90381 18.7284 5.33314 17.9227C6.76248 17.0991 8.40621 16.6873 10.2643 16.6873C12.6227 16.6873 14.6059 17.3229 16.2139 18.5941C17.8219 19.8474 18.8582 21.5574 19.3227 23.7238H13.6679C13.3285 23.0076 12.855 22.4615 12.2475 22.0855C11.6579 21.7095 10.9701 21.5215 10.1839 21.5215C8.96901 21.5215 7.99528 21.9602 7.26274 22.8375C6.54808 23.697 6.19074 24.8518 6.19074 26.3021C6.19074 27.7703 6.54808 28.9431 7.26274 29.8204C7.99528 30.6798 8.96901 31.1095 10.1839 31.1095C10.9701 31.1095 11.6579 30.9215 12.2475 30.5455C12.855 30.1695 13.3285 29.6234 13.6679 28.9073H19.3227C18.8582 31.0737 17.8219 32.7926 16.2139 34.0638C14.6059 35.3172 12.6227 35.9438 10.2643 35.9438C8.40621 35.9438 6.76248 35.541 5.33314 34.7353C3.90381 33.9116 2.79608 32.7747 2.00994 31.3244C1.24168 29.8562 0.857544 28.1821 0.857544 26.3021ZM27.063 23.4015C27.6526 22.5421 28.3673 21.8617 29.207 21.3604C30.0468 20.8591 30.949 20.6084 31.9138 20.6084V26.2215H30.4398C29.2964 26.2215 28.4477 26.4454 27.8938 26.893C27.34 27.3406 27.063 28.1194 27.063 29.2295V35.8095H21.8101V20.7427H27.063V23.4015ZM49.984 20.7427L40.4432 42.9804H34.7348L38.326 35.165L32.162 20.7427H38.0043L41.1668 29.2833L44.222 20.7427H49.984ZM56.6109 22.8375C57.0219 22.1393 57.6025 21.5842 58.3529 21.1724C59.1033 20.7606 59.9877 20.5547 61.0061 20.5547C62.2032 20.5547 63.2841 20.868 64.2489 21.4947C65.2316 22.1214 65.9999 23.0166 66.5537 24.1804C67.1255 25.3442 67.4113 26.705 67.4113 28.2627C67.4113 29.8204 67.1255 31.1901 66.5537 32.3718C65.9999 33.5356 65.2316 34.4309 64.2489 35.0575C63.2841 35.6842 62.2032 35.9975 61.0061 35.9975C59.9877 35.9975 59.1033 35.7916 58.3529 35.3798C57.6204 34.968 57.0397 34.413 56.6109 33.7147V43.0073H51.3581V20.7427H56.6109V22.8375ZM62.0781 28.2627C62.0781 27.2779 61.8101 26.517 61.2741 25.9798C60.756 25.4248 60.1128 25.1473 59.3445 25.1473C58.5763 25.1473 57.9241 25.4248 57.3881 25.9798C56.87 26.5349 56.6109 27.2958 56.6109 28.2627C56.6109 29.2474 56.87 30.0174 57.3881 30.5724C57.9241 31.1274 58.5763 31.405 59.3445 31.405C60.1128 31.405 60.756 31.1274 61.2741 30.5724C61.8101 29.9994 62.0781 29.2295 62.0781 28.2627ZM78.4447 31.3244V35.8095H76.1667C72.3253 35.8095 70.4047 33.9027 70.4047 30.089V25.1204H68.5555V20.7427H70.4047V17.0901H75.6843V20.7427H78.4179V25.1204H75.6843V30.1695C75.6843 30.5814 75.7736 30.8768 75.9523 31.0558C76.1488 31.2349 76.4704 31.3244 76.9171 31.3244H78.4447ZM87.8488 35.9975C86.348 35.9975 84.9991 35.6842 83.802 35.0575C82.6228 34.4309 81.6937 33.5356 81.0148 32.3718C80.3358 31.208 79.9964 29.8383 79.9964 28.2627C79.9964 26.705 80.3358 25.3442 81.0148 24.1804C81.7116 23.0166 82.6496 22.1214 83.8288 21.4947C85.0259 20.868 86.3748 20.5547 87.8756 20.5547C89.3764 20.5547 90.7164 20.868 91.8956 21.4947C93.0927 22.1214 94.0306 23.0166 94.7096 24.1804C95.4064 25.3442 95.7548 26.705 95.7548 28.2627C95.7548 29.8204 95.4064 31.1901 94.7096 32.3718C94.0306 33.5356 93.0927 34.4309 91.8956 35.0575C90.6985 35.6842 89.3496 35.9975 87.8488 35.9975ZM87.8488 31.4318C88.5813 31.4318 89.1888 31.1633 89.6712 30.6261C90.1714 30.0711 90.4216 29.2833 90.4216 28.2627C90.4216 27.2421 90.1714 26.4633 89.6712 25.9261C89.1888 25.389 88.5903 25.1204 87.8756 25.1204C87.1609 25.1204 86.5624 25.389 86.08 25.9261C85.5976 26.4633 85.3564 27.2421 85.3564 28.2627C85.3564 29.3012 85.5887 30.089 86.053 30.6261C86.5177 31.1633 87.1162 31.4318 87.8488 31.4318Z" fill="black"/>
<path d="M113.963 29.9681H106.146L104.967 33.5714L98.5168 33.5714L106.552 11.4814H113.619L121.623 33.5714H115.151L113.963 29.9681ZM112.431 25.2681L110.054 18.1241L107.709 25.2681H112.431Z" fill="#EBCA89"/>
<path d="M130.712 11.4814V33.5714H124.584V11.4814H130.712Z" fill="#EBCA89"/>
</svg>